<?xml version="1.0" encoding="UTF-8"?>
<svg id="uuid-35c35ea4-fdf9-4283-b928-bbc3faf68c02" data-name="Layer 2" xmlns="http://www.w3.org/2000/svg" xmlns:xlink="http://www.w3.org/1999/xlink" viewBox="0 0 128.06 116.13">
  <defs>
    <style>
      .uuid-ab883907-2bb1-4f3c-8cae-ad38b8fd2753 {
        clip-path: url(#uuid-95b58ce1-f079-4ecd-a4bd-01c27a7daeff);
      }

      .uuid-2a35376d-4d46-4eb8-a5ff-493eaac5b047 {
        fill: none;
        stroke-width: 0px;
      }

      .uuid-910341d4-ed25-4706-8e0b-03af338253d9 {
        clip-path: url(#uuid-e5d0aefb-1951-4389-8bd8-c9eb379bf6c4);
      }
    </style>
    <clipPath id="uuid-e5d0aefb-1951-4389-8bd8-c9eb379bf6c4">
      <path class="uuid-2a35376d-4d46-4eb8-a5ff-493eaac5b047" d="M30.4,16.2c.02-.74.14-1.34,1.28-4.34,1.96-5.17,2.94-7.76,3.83-8.68C37.75.86,41.41-.41,44.96.12c5.24.78,7.82,5.1,8.43,6.13.59,1,1.98,3.4,1.79,6.64-.22,3.73-2.41,6.38-2.96,7.03-.04.05-.08.09-.1.12-2.98,3.43-5.74,3.93-5.62,4.6.11.56,2.14.25,5.36.77,3.83.61,6.01,1.87,6.38,1.28.47-.75-3.01-2.74-2.55-4.85.3-1.4,2.26-2.53,3.83-2.3,1.74.26,1.69,2.01,3.83,3.83,3.31,2.81,6.42,1.2,8.68,4.09.17.22,1.69,2.21,1.02,3.57-.77,1.57-4.06,1.46-8.43,1.28-5.86-.25-8.44-1.2-9.19,0-.56.88.25,2.34,1.53,4.6,1.78,3.13,3.67,5.16,4.09,5.62,4.63,5.03,3.7,6.16,7.66,10.47,2.21,2.41,4.45,3.99,8.94,7.15,5.58,3.94,8.37,5.91,12,7.15,1.15.39,2.73.85,14.04,1.28,11.77.45,14.59.12,17.87,2.55,2.94,2.18,4.28,5.09,4.85,6.38,1.9,4.27,2.18,9.66.77,10.21-1.31.51-2.78-3.62-7.91-7.15-4-2.75-7.92-3.54-9.45-3.83-8.18-1.56-9.83,2.73-18.13,2.3-8.57-.45-15.75-5.5-17.62-6.89-4.27-3.19-6.67-6.58-7.91-5.87-.9.51-.21,2.61.51,8.17,1.15,8.89.18,9.57,1.53,12.26,2.12,4.19,6.31,6.11,9.7,7.66,7.08,3.23,10.65,1.49,13.53,5.11,1.66,2.08,1.97,4.53,2.3,7.15.41,3.27.84,6.66-1.28,8.43-1.97,1.65-5.55,1.4-7.66-.26-2.58-2.03-1.28-4.87-3.57-8.17-2.14-3.07-5.04-3.15-9.45-5.11-5.94-2.64-10.71-6.95-13.28-10.47-3.8-5.21-1.72-7.22-5.87-20.43-1.83-5.84-3.13-9.96-6.13-14.81-1.98-3.2-5.86-9.48-13.02-13.79-9.73-5.85-15.06-1.79-24.26-8.68-.43-.32-4.62-3.54-7.4-9.19-.98-2-2.67-5.43-1.28-7.15,1.3-1.6,4.61-.88,5.11-.77,4.13.96,5.2,4.28,12.26,10.98,2.58,2.45,3.66,3.16,4.34,3.57,1.63.98,5.54,3.35,9.96,2.3.5-.12,4.42-1.06,4.85-3.32.3-1.57-1.37-2.24-3.83-6.13-1.52-2.41-2.89-4.62-2.81-7.4Z"/>
    </clipPath>
    <clipPath id="uuid-95b58ce1-f079-4ecd-a4bd-01c27a7daeff">
      <rect class="uuid-2a35376d-4d46-4eb8-a5ff-493eaac5b047" x="-254.47" y="-252.01" width="460.8" height="460.8"/>
    </clipPath>
  </defs>
  <g class="uuid-910341d4-ed25-4706-8e0b-03af338253d9">
    <g class="uuid-ab883907-2bb1-4f3c-8cae-ad38b8fd2753">
      <image width="1920" height="1920" transform="translate(-254.47 -252.01) scale(.24)" xlink:href="../../Downloads/caricature-5267152_1920.jpg"/>
    </g>
  </g>
</svg>